# xmcd CD database file
#
# Track frame offsets:
#	183
#	28308
#	39193
#	58385
#	73110
#	92533
#	104495
#	118938
#	135183
#	157328
#	170805
#
# Disc length: 2535 seconds
#
# Revision: 0
# Processed by: cddbd v1.5.1PL2 Copyright (c) Steve Scherf et al.
# Submitted via: CdAid (MTCDDB.DLL V2003.07.15)
#
DISCID=a109e50b
DTITLE=Rob de Nijs - De regen voorbij
DYEAR=1981
DGENRE=Rock
TTITLE0=Overture "De regen voorbij"
TTITLE1=Leven in een droom
TTITLE2='t Glanst maar 't is koud
TTITLE3=Rood van de morgen
TTITLE4=Dat is alles
TTITLE5=Zonder jou
TTITLE6=Dolle Dollie
TTITLE7=M'n beste vriendin
TTITLE8=Altijd alleen
TTITLE9=Mijn geheim
TTITLE10=Wie weet
EXTD=ID3G:  17 YEAR: 1981
EXTT0=
EXTT1=
EXTT2=
EXTT3=
EXTT4=
EXTT5=
EXTT6=
EXTT7=
EXTT8=
EXTT9=
EXTT10=
PLAYORDER=
